<mxfile host="app.diagrams.net" modified="2022-08-09T06:38:02.876Z" agent="5.0 (Windows NT 10.0; Win64; x64) AppleWebKit/537.36 (KHTML, like Gecko) Chrome/102.0.5005.149 Safari/537.36" etag="9dMaC7JbjhJocfei-WTg" version="17.2.5" type="github">
  <diagram id="irZrY0_MFv77apMFZJND" name="Page-1">
    <mxGraphModel dx="1980" dy="1133" grid="0" gridSize="10" guides="1" tooltips="1" connect="1" arrows="1" fold="1" page="1" pageScale="1" pageWidth="850" pageHeight="1100" math="0" shadow="0">
      <root>
        <mxCell id="0" />
        <mxCell id="1" parent="0" />
        <mxCell id="viFgyHe06iuQAPD4dH7f-1" value="Engage" style="shape=step;perimeter=stepPerimeter;whiteSpace=wrap;html=1;fixedSize=1;fillColor=none;" parent="1" vertex="1">
          <mxGeometry x="55" y="460" width="120" height="80" as="geometry" />
        </mxCell>
        <mxCell id="viFgyHe06iuQAPD4dH7f-2" value="Design &amp;amp;&lt;br&gt;Transition" style="shape=step;perimeter=stepPerimeter;whiteSpace=wrap;html=1;fixedSize=1;" parent="1" vertex="1">
          <mxGeometry x="165" y="460" width="120" height="80" as="geometry" />
        </mxCell>
        <mxCell id="viFgyHe06iuQAPD4dH7f-12" style="edgeStyle=orthogonalEdgeStyle;shape=link;rounded=0;orthogonalLoop=1;jettySize=auto;html=1;exitX=0.5;exitY=0;exitDx=0;exitDy=0;entryX=0.5;entryY=1;entryDx=0;entryDy=0;" parent="1" source="viFgyHe06iuQAPD4dH7f-3" target="viFgyHe06iuQAPD4dH7f-9" edge="1">
          <mxGeometry relative="1" as="geometry" />
        </mxCell>
        <mxCell id="viFgyHe06iuQAPD4dH7f-3" value="Engage" style="shape=step;perimeter=stepPerimeter;whiteSpace=wrap;html=1;fixedSize=1;" parent="1" vertex="1">
          <mxGeometry x="275" y="460" width="120" height="80" as="geometry" />
        </mxCell>
        <mxCell id="viFgyHe06iuQAPD4dH7f-4" value="Design &amp;amp; &lt;br&gt;Transition" style="shape=step;perimeter=stepPerimeter;whiteSpace=wrap;html=1;fixedSize=1;" parent="1" vertex="1">
          <mxGeometry x="589.5" y="760" width="120" height="80" as="geometry" />
        </mxCell>
        <mxCell id="viFgyHe06iuQAPD4dH7f-11" style="edgeStyle=orthogonalEdgeStyle;shape=link;rounded=0;orthogonalLoop=1;jettySize=auto;html=1;exitX=0.5;exitY=1;exitDx=0;exitDy=0;entryX=0.5;entryY=0;entryDx=0;entryDy=0;" parent="1" source="viFgyHe06iuQAPD4dH7f-7" target="viFgyHe06iuQAPD4dH7f-1" edge="1">
          <mxGeometry relative="1" as="geometry" />
        </mxCell>
        <mxCell id="viFgyHe06iuQAPD4dH7f-7" value="Kunde meddeler at de har behov for en backup losning" style="rounded=1;whiteSpace=wrap;html=1;" parent="1" vertex="1">
          <mxGeometry x="40" y="390" width="150" height="60" as="geometry" />
        </mxCell>
        <mxCell id="viFgyHe06iuQAPD4dH7f-10" style="edgeStyle=orthogonalEdgeStyle;rounded=0;orthogonalLoop=1;jettySize=auto;html=1;exitX=0.5;exitY=0;exitDx=0;exitDy=0;entryX=0.5;entryY=1;entryDx=0;entryDy=0;shape=link;" parent="1" source="viFgyHe06iuQAPD4dH7f-8" target="viFgyHe06iuQAPD4dH7f-2" edge="1">
          <mxGeometry relative="1" as="geometry" />
        </mxCell>
        <mxCell id="viFgyHe06iuQAPD4dH7f-8" value="&lt;span&gt;Hvor stor en udviddelse har eksisterende serverfarme kapacitet til?&lt;br&gt;&lt;/span&gt;&lt;br&gt;Hvad er kundens reelle krav?&lt;br&gt;&lt;br&gt;Er der efterspørgsel hos øvrige kunder?" style="rounded=1;whiteSpace=wrap;html=1;align=left;" parent="1" vertex="1">
          <mxGeometry x="125" y="550" width="200" height="140" as="geometry" />
        </mxCell>
        <mxCell id="viFgyHe06iuQAPD4dH7f-9" value="Hjælpe kunden med at finde frem til deres behov.&lt;br&gt;&lt;br&gt;Undersøge efterspørgsel" style="rounded=1;whiteSpace=wrap;html=1;" parent="1" vertex="1">
          <mxGeometry x="260" y="340" width="150" height="80" as="geometry" />
        </mxCell>
        <mxCell id="viFgyHe06iuQAPD4dH7f-14" style="edgeStyle=orthogonalEdgeStyle;shape=link;rounded=0;orthogonalLoop=1;jettySize=auto;html=1;exitX=0.5;exitY=0;exitDx=0;exitDy=0;entryX=0.5;entryY=1;entryDx=0;entryDy=0;" parent="1" source="viFgyHe06iuQAPD4dH7f-13" target="viFgyHe06iuQAPD4dH7f-4" edge="1">
          <mxGeometry relative="1" as="geometry" />
        </mxCell>
        <mxCell id="viFgyHe06iuQAPD4dH7f-13" value="Design af nye lager fasciliteter. Hardware, lokation, Bemanding, dift." style="rounded=1;whiteSpace=wrap;html=1;" parent="1" vertex="1">
          <mxGeometry x="574.5" y="850" width="150" height="70" as="geometry" />
        </mxCell>
        <mxCell id="viFgyHe06iuQAPD4dH7f-55" style="edgeStyle=orthogonalEdgeStyle;rounded=0;orthogonalLoop=1;jettySize=auto;html=1;exitX=1;exitY=0.5;exitDx=0;exitDy=0;entryX=0;entryY=0.5;entryDx=0;entryDy=0;" parent="1" source="viFgyHe06iuQAPD4dH7f-15" target="viFgyHe06iuQAPD4dH7f-27" edge="1">
          <mxGeometry relative="1" as="geometry">
            <mxPoint x="970" y="510" as="targetPoint" />
            <Array as="points">
              <mxPoint x="970" y="800" />
              <mxPoint x="970" y="500" />
            </Array>
          </mxGeometry>
        </mxCell>
        <mxCell id="viFgyHe06iuQAPD4dH7f-15" value="Obtain &amp;amp; Build" style="shape=step;perimeter=stepPerimeter;whiteSpace=wrap;html=1;fixedSize=1;" parent="1" vertex="1">
          <mxGeometry x="699.5" y="760" width="120" height="80" as="geometry" />
        </mxCell>
        <mxCell id="viFgyHe06iuQAPD4dH7f-17" style="edgeStyle=orthogonalEdgeStyle;shape=link;rounded=0;orthogonalLoop=1;jettySize=auto;html=1;exitX=0.5;exitY=1;exitDx=0;exitDy=0;entryX=0.5;entryY=0;entryDx=0;entryDy=0;" parent="1" source="viFgyHe06iuQAPD4dH7f-16" target="viFgyHe06iuQAPD4dH7f-15" edge="1">
          <mxGeometry relative="1" as="geometry" />
        </mxCell>
        <mxCell id="viFgyHe06iuQAPD4dH7f-16" value="Der foretages indkøb, lager bliver bygger.&lt;br&gt;Der udvikles evt. software" style="rounded=1;whiteSpace=wrap;html=1;" parent="1" vertex="1">
          <mxGeometry x="684.5" y="690" width="155.5" height="60" as="geometry" />
        </mxCell>
        <mxCell id="viFgyHe06iuQAPD4dH7f-27" value="Deliver &lt;br&gt;&amp;amp; Support&amp;nbsp;" style="shape=step;perimeter=stepPerimeter;whiteSpace=wrap;html=1;fixedSize=1;" parent="1" vertex="1">
          <mxGeometry x="1045" y="460" width="120" height="80" as="geometry" />
        </mxCell>
        <mxCell id="viFgyHe06iuQAPD4dH7f-79" style="edgeStyle=orthogonalEdgeStyle;rounded=0;orthogonalLoop=1;jettySize=auto;html=1;exitX=0.5;exitY=1;exitDx=0;exitDy=0;entryX=0.333;entryY=0;entryDx=0;entryDy=0;entryPerimeter=0;endArrow=none;endFill=0;shape=link;" parent="1" source="viFgyHe06iuQAPD4dH7f-29" target="viFgyHe06iuQAPD4dH7f-27" edge="1">
          <mxGeometry relative="1" as="geometry" />
        </mxCell>
        <mxCell id="viFgyHe06iuQAPD4dH7f-29" value="Service driftes iflg. design og planlægning fra tidligere faser.&lt;br&gt;Der dokumenteres og indsamles data med enblik på fremtidige iterationer." style="rounded=1;whiteSpace=wrap;html=1;" parent="1" vertex="1">
          <mxGeometry x="1010" y="330" width="150" height="110" as="geometry" />
        </mxCell>
        <mxCell id="viFgyHe06iuQAPD4dH7f-30" value="Plan" style="shape=step;perimeter=stepPerimeter;whiteSpace=wrap;html=1;fixedSize=1;" parent="1" vertex="1">
          <mxGeometry x="385" y="460" width="120" height="80" as="geometry" />
        </mxCell>
        <mxCell id="viFgyHe06iuQAPD4dH7f-31" style="edgeStyle=orthogonalEdgeStyle;shape=link;rounded=0;orthogonalLoop=1;jettySize=auto;html=1;exitX=0.5;exitY=0;exitDx=0;exitDy=0;entryX=0.5;entryY=1;entryDx=0;entryDy=0;" parent="1" source="viFgyHe06iuQAPD4dH7f-32" target="viFgyHe06iuQAPD4dH7f-30" edge="1">
          <mxGeometry relative="1" as="geometry" />
        </mxCell>
        <mxCell id="viFgyHe06iuQAPD4dH7f-32" value="Der tages en beslutning om hvorvidt vi selv stiler lager til rådighed, eller får det igennem en 3. part&lt;br&gt;&lt;br&gt;Ligeledes, skal drift- og user-facing software udvikles in-house, eller bruger vi en eksisterende løsning?" style="rounded=1;whiteSpace=wrap;html=1;" parent="1" vertex="1">
          <mxGeometry x="360" y="600" width="170" height="146" as="geometry" />
        </mxCell>
        <mxCell id="viFgyHe06iuQAPD4dH7f-56" style="edgeStyle=orthogonalEdgeStyle;rounded=0;orthogonalLoop=1;jettySize=auto;html=1;exitX=1;exitY=0.5;exitDx=0;exitDy=0;entryX=0;entryY=0.5;entryDx=0;entryDy=0;" parent="1" source="viFgyHe06iuQAPD4dH7f-33" target="viFgyHe06iuQAPD4dH7f-27" edge="1">
          <mxGeometry relative="1" as="geometry">
            <Array as="points">
              <mxPoint x="970" y="180" />
              <mxPoint x="970" y="500" />
            </Array>
          </mxGeometry>
        </mxCell>
        <mxCell id="viFgyHe06iuQAPD4dH7f-33" value="Obtain &amp;amp; Build" style="shape=step;perimeter=stepPerimeter;whiteSpace=wrap;html=1;fixedSize=1;" parent="1" vertex="1">
          <mxGeometry x="814.5" y="140" width="120" height="80" as="geometry" />
        </mxCell>
        <mxCell id="viFgyHe06iuQAPD4dH7f-34" style="edgeStyle=orthogonalEdgeStyle;shape=link;rounded=0;orthogonalLoop=1;jettySize=auto;html=1;exitX=0.5;exitY=1;exitDx=0;exitDy=0;entryX=0.5;entryY=0;entryDx=0;entryDy=0;" parent="1" source="viFgyHe06iuQAPD4dH7f-35" target="viFgyHe06iuQAPD4dH7f-33" edge="1">
          <mxGeometry relative="1" as="geometry" />
        </mxCell>
        <mxCell id="viFgyHe06iuQAPD4dH7f-35" value="Der bliver indgået en konkret aftale med 3. part, og evt. udviklet software" style="rounded=1;whiteSpace=wrap;html=1;" parent="1" vertex="1">
          <mxGeometry x="799.5" y="70" width="150" height="60" as="geometry" />
        </mxCell>
        <mxCell id="viFgyHe06iuQAPD4dH7f-36" value="Design &amp;amp; &lt;br&gt;Transition" style="shape=step;perimeter=stepPerimeter;whiteSpace=wrap;html=1;fixedSize=1;" parent="1" vertex="1">
          <mxGeometry x="704.5" y="140" width="120" height="80" as="geometry" />
        </mxCell>
        <mxCell id="viFgyHe06iuQAPD4dH7f-37" style="edgeStyle=orthogonalEdgeStyle;shape=link;rounded=0;orthogonalLoop=1;jettySize=auto;html=1;exitX=0.5;exitY=0;exitDx=0;exitDy=0;entryX=0.5;entryY=1;entryDx=0;entryDy=0;" parent="1" source="viFgyHe06iuQAPD4dH7f-38" target="viFgyHe06iuQAPD4dH7f-36" edge="1">
          <mxGeometry relative="1" as="geometry" />
        </mxCell>
        <mxCell id="viFgyHe06iuQAPD4dH7f-38" value="Det besluttes hvilken udbyder der bedst passer vores behov, og der bliver lavet et design a servicen (som set fra vores kundes perspektiv)" style="rounded=1;whiteSpace=wrap;html=1;" parent="1" vertex="1">
          <mxGeometry x="689.5" y="230" width="150" height="90" as="geometry" />
        </mxCell>
        <mxCell id="viFgyHe06iuQAPD4dH7f-52" style="rounded=0;orthogonalLoop=1;jettySize=auto;html=1;exitX=1;exitY=0.5;exitDx=0;exitDy=0;edgeStyle=orthogonalEdgeStyle;" parent="1" source="viFgyHe06iuQAPD4dH7f-39" target="viFgyHe06iuQAPD4dH7f-4" edge="1">
          <mxGeometry relative="1" as="geometry" />
        </mxCell>
        <mxCell id="viFgyHe06iuQAPD4dH7f-65" value="Man belutter at udvidde" style="edgeLabel;html=1;align=center;verticalAlign=middle;resizable=0;points=[];" parent="viFgyHe06iuQAPD4dH7f-52" vertex="1" connectable="0">
          <mxGeometry x="-0.1399" y="1" relative="1" as="geometry">
            <mxPoint y="1" as="offset" />
          </mxGeometry>
        </mxCell>
        <mxCell id="viFgyHe06iuQAPD4dH7f-54" style="edgeStyle=orthogonalEdgeStyle;rounded=0;orthogonalLoop=1;jettySize=auto;html=1;exitX=1;exitY=0.5;exitDx=0;exitDy=0;entryX=0.5;entryY=1;entryDx=0;entryDy=0;" parent="1" source="viFgyHe06iuQAPD4dH7f-39" target="viFgyHe06iuQAPD4dH7f-45" edge="1">
          <mxGeometry relative="1" as="geometry" />
        </mxCell>
        <mxCell id="viFgyHe06iuQAPD4dH7f-66" value="&lt;span style=&quot;font-size: 12px&quot;&gt;Der er &lt;br&gt;begræ&lt;/span&gt;&lt;span style=&quot;font-size: 12px&quot;&gt;nset efterspørgsel&lt;/span&gt;&lt;br&gt;&lt;span style=&quot;font-size: 12px&quot;&gt;&amp;nbsp;eller man vurderer at det ikke &lt;/span&gt;&lt;br&gt;&lt;span style=&quot;font-size: 12px&quot;&gt;kan betale sig at udvide servere&lt;/span&gt;" style="edgeLabel;html=1;align=center;verticalAlign=middle;resizable=0;points=[];labelBackgroundColor=none;" parent="viFgyHe06iuQAPD4dH7f-54" vertex="1" connectable="0">
          <mxGeometry x="0.4701" y="-1" relative="1" as="geometry">
            <mxPoint x="-61" y="-27" as="offset" />
          </mxGeometry>
        </mxCell>
        <mxCell id="viFgyHe06iuQAPD4dH7f-39" value="Design &amp;amp; &lt;br&gt;Transition" style="shape=step;perimeter=stepPerimeter;whiteSpace=wrap;html=1;fixedSize=1;" parent="1" vertex="1">
          <mxGeometry x="500" y="460" width="120" height="80" as="geometry" />
        </mxCell>
        <mxCell id="viFgyHe06iuQAPD4dH7f-42" style="edgeStyle=orthogonalEdgeStyle;shape=link;rounded=0;orthogonalLoop=1;jettySize=auto;html=1;exitX=0.5;exitY=1;exitDx=0;exitDy=0;entryX=0.417;entryY=0.025;entryDx=0;entryDy=0;entryPerimeter=0;" parent="1" source="viFgyHe06iuQAPD4dH7f-41" target="viFgyHe06iuQAPD4dH7f-39" edge="1">
          <mxGeometry relative="1" as="geometry" />
        </mxCell>
        <mxCell id="viFgyHe06iuQAPD4dH7f-41" value="Der udarbejdes en konkret kravspecification på den løsning det er besluttet at udvikle." style="rounded=1;whiteSpace=wrap;html=1;" parent="1" vertex="1">
          <mxGeometry x="470" y="340" width="160" height="80" as="geometry" />
        </mxCell>
        <mxCell id="viFgyHe06iuQAPD4dH7f-45" value="Engage" style="shape=step;perimeter=stepPerimeter;whiteSpace=wrap;html=1;fixedSize=1;" parent="1" vertex="1">
          <mxGeometry x="589.5" y="140" width="120" height="80" as="geometry" />
        </mxCell>
        <mxCell id="viFgyHe06iuQAPD4dH7f-46" style="edgeStyle=orthogonalEdgeStyle;shape=link;rounded=0;orthogonalLoop=1;jettySize=auto;html=1;exitX=0.5;exitY=1;exitDx=0;exitDy=0;entryX=0.5;entryY=0;entryDx=0;entryDy=0;" parent="1" source="viFgyHe06iuQAPD4dH7f-47" target="viFgyHe06iuQAPD4dH7f-45" edge="1">
          <mxGeometry relative="1" as="geometry" />
        </mxCell>
        <mxCell id="viFgyHe06iuQAPD4dH7f-47" value="Der tages kontakt til diverse 3.partsudbydere. undersøge tilbud, kontraktforhold." style="rounded=1;whiteSpace=wrap;html=1;" parent="1" vertex="1">
          <mxGeometry x="574.5" y="60" width="150" height="70" as="geometry" />
        </mxCell>
        <mxCell id="viFgyHe06iuQAPD4dH7f-71" value="Engage" style="shape=step;perimeter=stepPerimeter;whiteSpace=wrap;html=1;fixedSize=1;" parent="1" vertex="1">
          <mxGeometry x="1165" y="460" width="120" height="80" as="geometry" />
        </mxCell>
        <mxCell id="viFgyHe06iuQAPD4dH7f-74" value="Plan" style="shape=step;perimeter=stepPerimeter;whiteSpace=wrap;html=1;fixedSize=1;direction=west;" parent="1" vertex="1">
          <mxGeometry x="1165" y="560" width="120" height="80" as="geometry" />
        </mxCell>
        <mxCell id="viFgyHe06iuQAPD4dH7f-75" value="Improve" style="shape=step;perimeter=stepPerimeter;whiteSpace=wrap;html=1;fixedSize=1;direction=west;" parent="1" vertex="1">
          <mxGeometry x="1045" y="560" width="120" height="80" as="geometry" />
        </mxCell>
        <mxCell id="viFgyHe06iuQAPD4dH7f-78" value="" style="shape=image;html=1;verticalAlign=top;verticalLabelPosition=bottom;labelBackgroundColor=#ffffff;imageAspect=0;aspect=fixed;image=https://cdn4.iconfinder.com/data/icons/evil-icons-user-interface/64/download-128.png;direction=north;" parent="1" vertex="1">
          <mxGeometry x="1090" y="481" width="138" height="138" as="geometry" />
        </mxCell>
        <mxCell id="viFgyHe06iuQAPD4dH7f-81" value="processen optimeres iterativt, for at skabe kontinuerlig forbedring af service" style="text;html=1;align=center;verticalAlign=middle;whiteSpace=wrap;rounded=0;" parent="1" vertex="1">
          <mxGeometry x="1090" y="650" width="171" height="62" as="geometry" />
        </mxCell>
        <mxCell id="viFgyHe06iuQAPD4dH7f-82" value="Løbende dialog med kunden &lt;br&gt;for fortsat at kunne muliggøre &lt;br&gt;co-created value." style="text;html=1;align=center;verticalAlign=middle;resizable=0;points=[];autosize=1;strokeColor=none;fillColor=none;" parent="1" vertex="1">
          <mxGeometry x="1325" y="465" width="170" height="50" as="geometry" />
        </mxCell>
        <mxCell id="viFgyHe06iuQAPD4dH7f-85" value="" style="shape=flexArrow;endArrow=classic;html=1;rounded=0;fillColor=#99FF33;strokeColor=#33FF33;" parent="1" edge="1">
          <mxGeometry width="50" height="50" relative="1" as="geometry">
            <mxPoint x="190" y="1020" as="sourcePoint" />
            <mxPoint x="1080" y="1020" as="targetPoint" />
          </mxGeometry>
        </mxCell>
        <mxCell id="viFgyHe06iuQAPD4dH7f-87" value="&lt;font style=&quot;font-size: 25px;&quot;&gt;Oportunity&lt;/font&gt;" style="text;html=1;align=center;verticalAlign=middle;resizable=0;points=[];autosize=1;strokeColor=none;fillColor=none;" parent="1" vertex="1">
          <mxGeometry x="20" y="1000" width="140" height="40" as="geometry" />
        </mxCell>
        <mxCell id="viFgyHe06iuQAPD4dH7f-88" value="&lt;font style=&quot;font-size: 25px;&quot;&gt;Value&lt;br&gt;&lt;/font&gt;" style="text;html=1;align=center;verticalAlign=middle;resizable=0;points=[];autosize=1;strokeColor=none;fillColor=none;" parent="1" vertex="1">
          <mxGeometry x="1114" y="1000" width="90" height="40" as="geometry" />
        </mxCell>
      </root>
    </mxGraphModel>
  </diagram>
</mxfile>
